STARTFONT 2.1
FONT -Monotype-Bookman Old Style-Regular-I-Normal--14-140-75-75-P-77-iso8859-2
SIZE 14 75 75
FONTBOUNDINGBOX 20 18 -3 -4

STARTPROPERTIES 22
FOUNDRY "Monotype"
FAMILY_NAME "Bookman Old Style"
WEIGHT_NAME "Regular"
SLANT "I"
SETWIDTH_NAME "Normal"
ADD_STYLE_NAME ""
PIXEL_SIZE 14
POINT_SIZE 140
RESOLUTION_X 75
RESOLUTION_Y 75
SPACING "P"
AVERAGE_WIDTH 77
CHARSET_REGISTRY "iso8859"
CHARSET_ENCODING "2"
COPYRIGHT "Copyright (c) 1996 Monotype Typography Ltd."
CAP_HEIGHT 12
X_HEIGHT 8
WEIGHT 10
QUAD_WIDTH 9
DEFAULT_CHAR 160
FONT_DESCENT 4
FONT_ASCENT 14
ENDPROPERTIES

CHARS 191

STARTCHAR space
ENCODING 32
SWIDTH 300 0
DWIDTH 5 0
BBX 0 0 0 0
BITMAP
ENDCHAR

STARTCHAR exclam
ENCODING 33
SWIDTH 320 0
DWIDTH 5 0
BBX 3 11 2 0
BITMAP
20
20
20
20
60
40
40
40
00
80
80
ENDCHAR

STARTCHAR quotedbl
ENCODING 34
SWIDTH 360 0
DWIDTH 5 0
BBX 4 4 1 6
BITMAP
50
50
A0
A0
ENDCHAR

STARTCHAR numbersign
ENCODING 35
SWIDTH 600 0
DWIDTH 9 0
BBX 9 10 1 0
BITMAP
1200
1200
1200
7F80
1200
2400
FF00
2400
2400
2400
ENDCHAR

STARTCHAR dollar
ENCODING 36
SWIDTH 620 0
DWIDTH 9 0
BBX 8 14 2 -2
BITMAP
04
04
3D
6B
49
48
38
14
92
92
D6
BC
20
20
ENDCHAR

STARTCHAR percent
ENCODING 37
SWIDTH 800 0
DWIDTH 12 0
BBX 10 10 1 0
BITMAP
3040
4880
8900
8A00
9580
6A40
0C40
1440
2480
4300
ENDCHAR

STARTCHAR ampersand
ENCODING 38
SWIDTH 820 0
DWIDTH 12 0
BBX 10 10 2 0
BITMAP
1C00
2200
2600
39C0
4480
8480
8700
8240
C640
7980
ENDCHAR

STARTCHAR quoteright
ENCODING 39
SWIDTH 280 0
DWIDTH 4 0
BBX 4 5 0 6
BITMAP
30
20
20
40
80
ENDCHAR

STARTCHAR parenleft
ENCODING 40
SWIDTH 280 0
DWIDTH 4 0
BBX 5 14 0 -3
BITMAP
08
10
20
20
40
40
40
C0
80
80
80
80
80
40
ENDCHAR

STARTCHAR parenright
ENCODING 41
SWIDTH 280 0
DWIDTH 4 0
BBX 5 14 -1 -3
BITMAP
10
08
08
08
08
08
18
10
10
10
20
20
40
80
ENDCHAR

STARTCHAR asterisk
ENCODING 42
SWIDTH 440 0
DWIDTH 7 0
BBX 5 6 2 4
BITMAP
20
A8
70
70
A8
20
ENDCHAR

STARTCHAR plus
ENCODING 43
SWIDTH 600 0
DWIDTH 9 0
BBX 7 7 2 2
BITMAP
10
10
10
FE
10
10
10
ENDCHAR

STARTCHAR comma
ENCODING 44
SWIDTH 300 0
DWIDTH 5 0
BBX 4 5 0 -3
BITMAP
30
20
20
40
80
ENDCHAR

STARTCHAR minus
ENCODING 45
SWIDTH 600 0
DWIDTH 9 0
BBX 7 1 2 5
BITMAP
FE
ENDCHAR

STARTCHAR period
ENCODING 46
SWIDTH 300 0
DWIDTH 5 0
BBX 1 2 2 0
BITMAP
80
80
ENDCHAR

STARTCHAR slash
ENCODING 47
SWIDTH 600 0
DWIDTH 9 0
BBX 10 14 0 -3
BITMAP
0040
0080
0080
0100
0200
0200
0400
0800
0800
1000
2000
2000
4000
8000
ENDCHAR

STARTCHAR zero
ENCODING 48
SWIDTH 620 0
DWIDTH 9 0
BBX 8 10 2 0
BITMAP
1E
23
41
41
C1
83
82
82
C4
78
ENDCHAR

STARTCHAR one
ENCODING 49
SWIDTH 620 0
DWIDTH 9 0
BBX 4 10 3 0
BITMAP
10
70
20
20
20
60
40
40
40
E0
ENDCHAR

STARTCHAR two
ENCODING 50
SWIDTH 620 0
DWIDTH 9 0
BBX 8 10 1 0
BITMAP
1E
23
41
41
03
06
08
30
42
FE
ENDCHAR

STARTCHAR three
ENCODING 51
SWIDTH 620 0
DWIDTH 9 0
BBX 9 10 1 0
BITMAP
0F00
1180
1080
0100
0E00
0300
0100
8100
C200
7C00
ENDCHAR

STARTCHAR four
ENCODING 52
SWIDTH 620 0
DWIDTH 9 0
BBX 9 10 1 0
BITMAP
0100
0300
0E00
1200
2200
4200
FF80
0400
0400
0400
ENDCHAR

STARTCHAR five
ENCODING 53
SWIDTH 620 0
DWIDTH 9 0
BBX 9 10 1 0
BITMAP
1F80
1000
2000
3E00
0300
0100
0100
8300
C200
7C00
ENDCHAR

STARTCHAR six
ENCODING 54
SWIDTH 620 0
DWIDTH 9 0
BBX 8 10 2 0
BITMAP
0F
38
40
7C
C6
82
82
82
C4
78
ENDCHAR

STARTCHAR seven
ENCODING 55
SWIDTH 620 0
DWIDTH 9 0
BBX 8 10 3 0
BITMAP
7F
C2
84
08
10
30
20
60
40
C0
ENDCHAR

STARTCHAR eight
ENCODING 56
SWIDTH 620 0
DWIDTH 9 0
BBX 8 10 2 0
BITMAP
1E
21
41
62
3C
4E
82
82
84
78
ENDCHAR

STARTCHAR nine
ENCODING 57
SWIDTH 620 0
DWIDTH 9 0
BBX 8 10 2 0
BITMAP
1E
23
41
41
41
63
3E
02
1C
F0
ENDCHAR

STARTCHAR colon
ENCODING 58
SWIDTH 300 0
DWIDTH 5 0
BBX 2 7 2 0
BITMAP
40
40
00
00
00
80
80
ENDCHAR

STARTCHAR semicolon
ENCODING 59
SWIDTH 300 0
DWIDTH 5 0
BBX 4 10 0 -3
BITMAP
10
10
00
00
00
30
20
20
40
80
ENDCHAR

STARTCHAR less
ENCODING 60
SWIDTH 600 0
DWIDTH 9 0
BBX 7 7 1 2
BITMAP
02
0C
30
C0
60
1C
02
ENDCHAR

STARTCHAR equal
ENCODING 61
SWIDTH 600 0
DWIDTH 9 0
BBX 7 3 2 4
BITMAP
FE
00
FE
ENDCHAR

STARTCHAR greater
ENCODING 62
SWIDTH 600 0
DWIDTH 9 0
BBX 7 7 2 2
BITMAP
80
70
0C
06
18
60
80
ENDCHAR

STARTCHAR question
ENCODING 63
SWIDTH 540 0
DWIDTH 8 0
BBX 7 11 2 0
BITMAP
3C
62
02
02
02
3C
60
40
00
80
80
ENDCHAR

STARTCHAR at
ENCODING 64
SWIDTH 780 0
DWIDTH 12 0
BBX 12 13 0 -3
BITMAP
0FC0
1020
2010
4390
4490
8890
9190
9110
9760
5990
4010
3060
0F80
ENDCHAR

STARTCHAR A
ENCODING 65
SWIDTH 700 0
DWIDTH 10 0
BBX 11 10 0 0
BITMAP
0100
0300
0500
0580
0880
1F80
10C0
2040
4040
F0E0
ENDCHAR

STARTCHAR B
ENCODING 66
SWIDTH 720 0
DWIDTH 11 0
BBX 11 10 1 0
BITMAP
3FC0
1020
1020
2040
3F80
2040
2040
4040
4080
FF00
ENDCHAR

STARTCHAR C
ENCODING 67
SWIDTH 720 0
DWIDTH 11 0
BBX 10 10 2 0
BITMAP
0F40
30C0
6040
4040
8000
8000
8000
4080
6100
1E00
ENDCHAR

STARTCHAR D
ENCODING 68
SWIDTH 740 0
DWIDTH 11 0
BBX 11 10 1 0
BITMAP
3F80
1040
1020
2020
2020
2020
2040
4040
4180
FE00
ENDCHAR

STARTCHAR E
ENCODING 69
SWIDTH 680 0
DWIDTH 10 0
BBX 10 10 1 0
BITMAP
3F80
10C0
1040
2100
3F00
2200
2200
4080
4180
FF00
ENDCHAR

STARTCHAR F
ENCODING 70
SWIDTH 620 0
DWIDTH 9 0
BBX 10 10 1 0
BITMAP
3F80
10C0
1040
2100
3F00
2200
2200
4000
4000
E000
ENDCHAR

STARTCHAR G
ENCODING 71
SWIDTH 760 0
DWIDTH 11 0
BBX 11 10 2 0
BITMAP
0F40
30C0
6040
4000
8000
81E0
8040
4040
6180
1E80
ENDCHAR

STARTCHAR H
ENCODING 72
SWIDTH 800 0
DWIDTH 12 0
BBX 12 10 1 0
BITMAP
3870
1020
1020
2040
3FC0
2040
2040
4080
4080
E1C0
ENDCHAR

STARTCHAR I
ENCODING 73
SWIDTH 320 0
DWIDTH 5 0
BBX 5 10 1 0
BITMAP
38
10
10
20
20
20
20
40
40
E0
ENDCHAR

STARTCHAR J
ENCODING 74
SWIDTH 560 0
DWIDTH 8 0
BBX 9 10 1 0
BITMAP
0380
0100
0100
0200
0200
0200
4200
C400
8400
7800
ENDCHAR

STARTCHAR K
ENCODING 75
SWIDTH 720 0
DWIDTH 11 0
BBX 11 10 1 0
BITMAP
39E0
1080
1100
2200
2C00
3400
2200
4200
4100
E3C0
ENDCHAR

STARTCHAR L
ENCODING 76
SWIDTH 580 0
DWIDTH 9 0
BBX 8 10 1 0
BITMAP
38
10
10
20
20
20
20
41
43
FE
ENDCHAR

STARTCHAR M
ENCODING 77
SWIDTH 860 0
DWIDTH 13 0
BBX 13 10 1 0
BITMAP
3838
1830
1850
2890
28A0
2D20
2520
4640
4440
E4E0
ENDCHAR

STARTCHAR N
ENCODING 78
SWIDTH 720 0
DWIDTH 12 0
BBX 12 10 1 0
BITMAP
3870
1820
1420
1420
2240
2240
2140
4180
4080
E080
ENDCHAR

STARTCHAR O
ENCODING 79
SWIDTH 760 0
DWIDTH 11 0
BBX 10 10 2 0
BITMAP
0F00
3080
40C0
4040
8040
8040
8080
C080
4300
3C00
ENDCHAR

STARTCHAR P
ENCODING 80
SWIDTH 600 0
DWIDTH 9 0
BBX 9 10 1 0
BITMAP
3F00
1080
1080
2080
2100
3E00
2000
4000
4000
E000
ENDCHAR

STARTCHAR Q
ENCODING 81
SWIDTH 780 0
DWIDTH 11 0
BBX 10 12 2 -2
BITMAP
0F00
3080
40C0
4040
8040
8040
8080
C080
4300
3C00
1000
0F00
ENDCHAR

STARTCHAR R
ENCODING 82
SWIDTH 700 0
DWIDTH 10 0
BBX 10 10 1 0
BITMAP
3F80
1040
1040
2080
3F00
2400
2200
4200
4100
E1C0
ENDCHAR

STARTCHAR S
ENCODING 83
SWIDTH 640 0
DWIDTH 9 0
BBX 9 10 1 0
BITMAP
1E80
2180
4080
4000
3800
0600
8100
8100
C200
BC00
ENDCHAR

STARTCHAR T
ENCODING 84
SWIDTH 600 0
DWIDTH 9 0
BBX 9 10 2 0
BITMAP
7F00
C980
8880
1000
1000
1000
1000
2000
2000
7000
ENDCHAR

STARTCHAR U
ENCODING 85
SWIDTH 720 0
DWIDTH 11 0
BBX 11 10 2 0
BITMAP
70E0
2040
2040
4080
4080
4080
8100
8100
8200
7C00
ENDCHAR

STARTCHAR V
ENCODING 86
SWIDTH 680 0
DWIDTH 10 0
BBX 10 10 2 0
BITMAP
E1C0
4080
4100
4100
6200
2200
2400
2800
1800
1000
ENDCHAR

STARTCHAR W
ENCODING 87
SWIDTH 960 0
DWIDTH 14 0
BBX 14 10 2 0
BITMAP
E71C
4208
4210
4310
6520
2520
2940
2980
1180
1100
ENDCHAR

STARTCHAR X
ENCODING 88
SWIDTH 700 0
DWIDTH 10 0
BBX 10 10 1 0
BITMAP
71C0
2080
1100
0A00
0400
0A00
1200
2100
4080
E1C0
ENDCHAR

STARTCHAR Y
ENCODING 89
SWIDTH 660 0
DWIDTH 10 0
BBX 10 10 2 0
BITMAP
E1C0
4080
2100
2200
1400
1800
1000
2000
2000
7000
ENDCHAR

STARTCHAR Z
ENCODING 90
SWIDTH 580 0
DWIDTH 9 0
BBX 9 10 1 0
BITMAP
3F80
6080
4100
0200
0400
0800
1000
2100
4300
FE00
ENDCHAR

STARTCHAR bracketleft
ENCODING 91
SWIDTH 260 0
DWIDTH 4 0
BBX 5 14 0 -3
BITMAP
18
10
10
20
20
20
20
40
40
40
40
80
80
E0
ENDCHAR

STARTCHAR backslash
ENCODING 92
SWIDTH 600 0
DWIDTH 9 0
BBX 10 14 0 -3
BITMAP
8000
4000
2000
2000
1000
0800
0800
0400
0200
0200
0100
0080
0080
0040
ENDCHAR

STARTCHAR bracketright
ENCODING 93
SWIDTH 260 0
DWIDTH 4 0
BBX 5 14 -1 -3
BITMAP
18
08
08
10
10
10
10
20
20
20
20
40
40
C0
ENDCHAR

STARTCHAR asciicircum
ENCODING 94
SWIDTH 600 0
DWIDTH 9 0
BBX 7 6 2 4
BITMAP
10
28
44
44
82
82
ENDCHAR

STARTCHAR underscore
ENCODING 95
SWIDTH 500 0
DWIDTH 8 0
BBX 8 1 0 -2
BITMAP
FF
ENDCHAR

STARTCHAR quoteleft
ENCODING 96
SWIDTH 280 0
DWIDTH 4 0
BBX 3 5 3 6
BITMAP
20
40
80
C0
80
ENDCHAR

STARTCHAR a
ENCODING 97
SWIDTH 620 0
DWIDTH 9 0
BBX 8 7 1 0
BITMAP
1A
66
42
82
84
8D
76
ENDCHAR

STARTCHAR b
ENCODING 98
SWIDTH 600 0
DWIDTH 9 0
BBX 8 11 1 0
BITMAP
20
60
20
20
5E
61
41
41
82
C6
B8
ENDCHAR

STARTCHAR c
ENCODING 99
SWIDTH 480 0
DWIDTH 7 0
BBX 6 7 1 0
BITMAP
38
4C
84
80
80
88
70
ENDCHAR

STARTCHAR d
ENCODING 100
SWIDTH 640 0
DWIDTH 10 0
BBX 9 11 1 0
BITMAP
0080
0180
0080
0100
1D00
6300
4100
8200
8200
8680
7B00
ENDCHAR

STARTCHAR e
ENCODING 101
SWIDTH 540 0
DWIDTH 8 0
BBX 7 7 1 0
BITMAP
1C
62
42
FC
80
82
7C
ENDCHAR

STARTCHAR f
ENCODING 102
SWIDTH 340 0
DWIDTH 5 0
BBX 9 14 -1 -3
BITMAP
0300
0580
0400
0400
1E00
0800
0800
0800
0800
1000
1000
1000
A000
C000
ENDCHAR

STARTCHAR g
ENCODING 103
SWIDTH 560 0
DWIDTH 8 0
BBX 9 10 0 -3
BITMAP
0E80
3180
2100
4100
4300
4600
3A00
0200
C400
7800
ENDCHAR

STARTCHAR h
ENCODING 104
SWIDTH 620 0
DWIDTH 9 0
BBX 8 11 1 0
BITMAP
20
60
20
20
5C
62
42
42
84
85
86
ENDCHAR

STARTCHAR i
ENCODING 105
SWIDTH 280 0
DWIDTH 4 0
BBX 3 11 1 0
BITMAP
20
20
00
00
40
C0
40
40
80
A0
C0
ENDCHAR

STARTCHAR j
ENCODING 106
SWIDTH 280 0
DWIDTH 4 0
BBX 7 14 -2 -3
BITMAP
02
02
00
00
04
1C
04
08
08
08
10
10
D0
60
ENDCHAR

STARTCHAR k
ENCODING 107
SWIDTH 600 0
DWIDTH 9 0
BBX 8 11 1 0
BITMAP
20
60
20
20
47
58
70
50
88
89
86
ENDCHAR

STARTCHAR l
ENCODING 108
SWIDTH 280 0
DWIDTH 4 0
BBX 3 11 1 0
BITMAP
20
60
20
20
40
40
40
80
80
A0
C0
ENDCHAR

STARTCHAR m
ENCODING 109
SWIDTH 880 0
DWIDTH 13 0
BBX 11 7 2 0
BITMAP
5D80
E640
4440
4440
8880
88A0
88C0
ENDCHAR

STARTCHAR n
ENCODING 110
SWIDTH 620 0
DWIDTH 9 0
BBX 8 7 1 0
BITMAP
5C
E2
42
42
84
85
86
ENDCHAR

STARTCHAR o
ENCODING 111
SWIDTH 540 0
DWIDTH 8 0
BBX 7 7 1 0
BITMAP
3C
42
82
82
82
84
78
ENDCHAR

STARTCHAR p
ENCODING 112
SWIDTH 600 0
DWIDTH 9 0
BBX 9 10 0 -3
BITMAP
1700
3880
1080
1080
2180
3300
2C00
4000
4000
E000
ENDCHAR

STARTCHAR q
ENCODING 113
SWIDTH 560 0
DWIDTH 8 0
BBX 8 10 1 -3
BITMAP
1D
63
42
82
84
8C
74
08
08
1C
ENDCHAR

STARTCHAR r
ENCODING 114
SWIDTH 400 0
DWIDTH 6 0
BBX 5 7 2 0
BITMAP
58
E0
40
40
80
80
80
ENDCHAR

STARTCHAR s
ENCODING 115
SWIDTH 540 0
DWIDTH 8 0
BBX 7 7 1 0
BITMAP
3C
46
60
18
04
C4
78
ENDCHAR

STARTCHAR t
ENCODING 116
SWIDTH 340 0
DWIDTH 5 0
BBX 4 10 1 0
BITMAP
20
20
60
F0
40
40
80
80
90
60
ENDCHAR

STARTCHAR u
ENCODING 117
SWIDTH 620 0
DWIDTH 9 0
BBX 8 7 1 0
BITMAP
42
C2
42
42
84
8D
76
ENDCHAR

STARTCHAR v
ENCODING 118
SWIDTH 540 0
DWIDTH 8 0
BBX 7 7 1 0
BITMAP
44
C6
42
42
84
8C
70
ENDCHAR

STARTCHAR w
ENCODING 119
SWIDTH 880 0
DWIDTH 13 0
BBX 12 7 1 0
BITMAP
4220
C230
4610
4410
8C60
94C0
6300
ENDCHAR

STARTCHAR x
ENCODING 120
SWIDTH 540 0
DWIDTH 8 0
BBX 9 7 0 0
BITMAP
1180
3200
1C00
0800
1400
2480
C300
ENDCHAR

STARTCHAR y
ENCODING 121
SWIDTH 600 0
DWIDTH 9 0
BBX 8 10 1 -3
BITMAP
21
61
23
42
46
4A
32
84
CC
70
ENDCHAR

STARTCHAR z
ENCODING 122
SWIDTH 520 0
DWIDTH 8 0
BBX 8 7 1 0
BITMAP
3F
42
44
18
22
42
FC
ENDCHAR

STARTCHAR braceleft
ENCODING 123
SWIDTH 360 0
DWIDTH 5 0
BBX 4 14 2 -3
BITMAP
10
20
20
20
40
40
80
40
40
40
80
80
80
40
ENDCHAR

STARTCHAR bar
ENCODING 124
SWIDTH 600 0
DWIDTH 9 0
BBX 1 14 5 -3
BITMAP
80
80
80
80
80
80
80
80
80
80
80
80
80
80
ENDCHAR

STARTCHAR braceright
ENCODING 125
SWIDTH 380 0
DWIDTH 5 0
BBX 4 14 1 -3
BITMAP
20
10
10
10
20
20
20
10
20
20
40
40
40
80
ENDCHAR

STARTCHAR asciitilde
ENCODING 126
SWIDTH 600 0
DWIDTH 9 0
BBX 7 2 2 4
BITMAP
F2
9E
ENDCHAR

STARTCHAR space
ENCODING 160
SWIDTH 300 0
DWIDTH 5 0
BBX 0 0 0 0
BITMAP
ENDCHAR

STARTCHAR Aogonek
ENCODING 161
SWIDTH 700 0
DWIDTH 10 0
BBX 11 12 0 -2
BITMAP
0100
0300
0500
0580
0880
1F80
10C0
2040
4040
F0E0
0080
00E0
ENDCHAR

STARTCHAR breve
ENCODING 162
SWIDTH 440 0
DWIDTH 7 0
BBX 6 2 2 8
BITMAP
CC
78
ENDCHAR

STARTCHAR Lslash
ENCODING 163
SWIDTH 580 0
DWIDTH 9 0
BBX 8 10 1 0
BITMAP
38
10
10
28
30
60
20
41
43
FE
ENDCHAR

STARTCHAR currency
ENCODING 164
SWIDTH 600 0
DWIDTH 9 0
BBX 7 7 1 2
BITMAP
BA
44
82
82
82
44
BA
ENDCHAR

STARTCHAR Lcaron
ENCODING 165
SWIDTH 580 0
DWIDTH 9 0
BBX 8 10 1 0
BITMAP
3B
13
12
24
20
20
20
41
43
FE
ENDCHAR

STARTCHAR Sacute
ENCODING 166
SWIDTH 640 0
DWIDTH 9 0
BBX 9 13 1 0
BITMAP
0600
0C00
0000
1E80
2180
4080
4000
3800
0600
8100
8100
C200
BC00
ENDCHAR

STARTCHAR section
ENCODING 167
SWIDTH 620 0
DWIDTH 9 0
BBX 9 14 1 -3
BITMAP
0F00
1180
2080
2000
1C00
1200
2100
2100
2100
1100
0E00
8200
C400
7800
ENDCHAR

STARTCHAR dieresis
ENCODING 168
SWIDTH 420 0
DWIDTH 6 0
BBX 5 2 2 8
BITMAP
D8
D8
ENDCHAR

STARTCHAR Scaron
ENCODING 169
SWIDTH 640 0
DWIDTH 9 0
BBX 9 13 1 0
BITMAP
1B00
0E00
0000
1E80
2180
4080
4000
3800
0600
8100
8100
C200
BC00
ENDCHAR

STARTCHAR Scommaaccent
ENCODING 170
SWIDTH 640 0
DWIDTH 9 0
BBX 9 14 1 -4
BITMAP
1E80
2180
4080
4000
3800
0600
8100
8100
C200
BC00
0000
1800
1000
2000
ENDCHAR

STARTCHAR Tcaron
ENCODING 171
SWIDTH 600 0
DWIDTH 9 0
BBX 9 13 2 0
BITMAP
1B00
0E00
0000
7F00
C980
8880
1000
1000
1000
1000
2000
2000
7000
ENDCHAR

STARTCHAR Zacute
ENCODING 172
SWIDTH 580 0
DWIDTH 9 0
BBX 9 13 1 0
BITMAP
0300
0600
0000
3F80
6080
4100
0200
0400
0800
1000
2100
4300
FE00
ENDCHAR

STARTCHAR hyphen
ENCODING 173
SWIDTH 320 0
DWIDTH 5 0
BBX 4 1 1 3
BITMAP
F0
ENDCHAR

STARTCHAR Zcaron
ENCODING 174
SWIDTH 580 0
DWIDTH 9 0
BBX 9 13 1 0
BITMAP
0D80
0700
0000
3F80
6080
4100
0200
0400
0800
1000
2100
4300
FE00
ENDCHAR

STARTCHAR Zdotaccent
ENCODING 175
SWIDTH 580 0
DWIDTH 9 0
BBX 9 13 1 0
BITMAP
0600
0600
0000
3F80
6080
4100
0200
0400
0800
1000
2100
4300
FE00
ENDCHAR

STARTCHAR degree
ENCODING 176
SWIDTH 400 0
DWIDTH 6 0
BBX 4 4 3 6
BITMAP
60
90
90
60
ENDCHAR

STARTCHAR aogonek
ENCODING 177
SWIDTH 620 0
DWIDTH 9 0
BBX 8 9 1 -2
BITMAP
1A
66
42
82
84
8D
76
04
07
ENDCHAR

STARTCHAR ogonek
ENCODING 178
SWIDTH 260 0
DWIDTH 4 0
BBX 3 2 1 -2
BITMAP
80
E0
ENDCHAR

STARTCHAR lslash
ENCODING 179
SWIDTH 340 0
DWIDTH 4 0
BBX 5 11 0 0
BITMAP
10
30
10
10
28
30
60
C0
40
50
60
ENDCHAR

STARTCHAR acute
ENCODING 180
SWIDTH 320 0
DWIDTH 5 0
BBX 3 2 3 8
BITMAP
60
C0
ENDCHAR

STARTCHAR lcaron
ENCODING 181
SWIDTH 374 0
DWIDTH 5 0
BBX 6 11 1 0
BITMAP
2C
68
30
20
40
40
40
80
80
A0
C0
ENDCHAR

STARTCHAR sacute
ENCODING 182
SWIDTH 540 0
DWIDTH 8 0
BBX 7 10 1 0
BITMAP
0C
18
00
3C
46
60
18
04
C4
78
ENDCHAR

STARTCHAR caron
ENCODING 183
SWIDTH 440 0
DWIDTH 7 0
BBX 5 2 3 8
BITMAP
D8
70
ENDCHAR

STARTCHAR commaaccent
ENCODING 184
SWIDTH 333 0
DWIDTH 5 0
BBX 2 3 1 -4
BITMAP
C0
40
80
ENDCHAR

STARTCHAR scaron
ENCODING 185
SWIDTH 540 0
DWIDTH 8 0
BBX 7 10 1 0
BITMAP
36
1C
00
3C
46
60
18
04
C4
78
ENDCHAR

STARTCHAR scommaaccent
ENCODING 186
SWIDTH 540 0
DWIDTH 8 0
BBX 7 11 1 -4
BITMAP
3C
46
60
18
04
C4
78
00
30
20
40
ENDCHAR

STARTCHAR tcaron
ENCODING 187
SWIDTH 358 0
DWIDTH 5 0
BBX 6 10 1 0
BITMAP
2C
28
70
F0
40
40
80
80
90
60
ENDCHAR

STARTCHAR zacute
ENCODING 188
SWIDTH 520 0
DWIDTH 8 0
BBX 8 10 1 0
BITMAP
06
0C
00
3F
42
44
18
22
42
FC
ENDCHAR

STARTCHAR hungarumlaut
ENCODING 189
SWIDTH 340 0
DWIDTH 5 0
BBX 7 2 1 8
BITMAP
66
CC
ENDCHAR

STARTCHAR zcaron
ENCODING 190
SWIDTH 520 0
DWIDTH 8 0
BBX 8 10 1 0
BITMAP
1B
0E
00
3F
42
44
18
22
42
FC
ENDCHAR

STARTCHAR zdotaccent
ENCODING 191
SWIDTH 520 0
DWIDTH 8 0
BBX 8 10 1 0
BITMAP
0C
0C
00
3F
42
44
18
22
42
FC
ENDCHAR

STARTCHAR Racute
ENCODING 192
SWIDTH 700 0
DWIDTH 10 0
BBX 10 13 1 0
BITMAP
0300
0600
0000
3F80
1040
1040
2080
3F00
2400
2200
4200
4100
E1C0
ENDCHAR

STARTCHAR Aacute
ENCODING 193
SWIDTH 700 0
DWIDTH 10 0
BBX 11 13 0 0
BITMAP
0180
0300
0000
0100
0300
0500
0580
0880
1F80
10C0
2040
4040
F0E0
ENDCHAR

STARTCHAR Acircumflex
ENCODING 194
SWIDTH 700 0
DWIDTH 10 0
BBX 11 13 0 0
BITMAP
0380
06C0
0000
0100
0300
0500
0580
0880
1F80
10C0
2040
4040
F0E0
ENDCHAR

STARTCHAR Abreve
ENCODING 195
SWIDTH 700 0
DWIDTH 10 0
BBX 11 13 0 0
BITMAP
0660
03C0
0000
0100
0300
0500
0580
0880
1F80
10C0
2040
4040
F0E0
ENDCHAR

STARTCHAR Adieresis
ENCODING 196
SWIDTH 700 0
DWIDTH 10 0
BBX 11 13 0 0
BITMAP
06C0
06C0
0000
0100
0300
0500
0580
0880
1F80
10C0
2040
4040
F0E0
ENDCHAR

STARTCHAR Lacute
ENCODING 197
SWIDTH 580 0
DWIDTH 9 0
BBX 8 13 1 0
BITMAP
06
0C
00
38
10
10
20
20
20
20
41
43
FE
ENDCHAR

STARTCHAR Cacute
ENCODING 198
SWIDTH 720 0
DWIDTH 11 0
BBX 10 13 2 0
BITMAP
0300
0600
0000
0F40
30C0
6040
4040
8000
8000
8000
4080
6100
1E00
ENDCHAR

STARTCHAR Ccedilla
ENCODING 199
SWIDTH 720 0
DWIDTH 11 0
BBX 10 13 2 -3
BITMAP
0F40
30C0
6040
4040
8000
8000
8000
4080
6100
1E00
0800
0400
1800
ENDCHAR

STARTCHAR Ccaron
ENCODING 200
SWIDTH 720 0
DWIDTH 11 0
BBX 10 13 2 0
BITMAP
0D80
0700
0000
0F40
30C0
6040
4040
8000
8000
8000
4080
6100
1E00
ENDCHAR

STARTCHAR Eacute
ENCODING 201
SWIDTH 680 0
DWIDTH 10 0
BBX 10 13 1 0
BITMAP
0300
0600
0000
3F80
10C0
1040
2100
3F00
2200
2200
4080
4180
FF00
ENDCHAR

STARTCHAR Eogonek
ENCODING 202
SWIDTH 680 0
DWIDTH 10 0
BBX 10 12 1 -2
BITMAP
3F80
10C0
1040
2100
3F00
2200
2200
4080
4180
FF00
0200
0380
ENDCHAR

STARTCHAR Edieresis
ENCODING 203
SWIDTH 680 0
DWIDTH 10 0
BBX 10 13 1 0
BITMAP
0D80
0D80
0000
3F80
10C0
1040
2100
3F00
2200
2200
4080
4180
FF00
ENDCHAR

STARTCHAR Ecaron
ENCODING 204
SWIDTH 680 0
DWIDTH 10 0
BBX 10 13 1 0
BITMAP
0D80
0700
0000
3F80
10C0
1040
2100
3F00
2200
2200
4080
4180
FF00
ENDCHAR

STARTCHAR Iacute
ENCODING 205
SWIDTH 320 0
DWIDTH 5 0
BBX 6 13 1 0
BITMAP
0C
18
00
38
10
10
20
20
20
20
40
40
E0
ENDCHAR

STARTCHAR Icircumflex
ENCODING 206
SWIDTH 320 0
DWIDTH 5 0
BBX 7 13 1 0
BITMAP
1C
36
00
38
10
10
20
20
20
20
40
40
E0
ENDCHAR

STARTCHAR Dcaron
ENCODING 207
SWIDTH 740 0
DWIDTH 11 0
BBX 11 13 1 0
BITMAP
06C0
0380
0000
3F80
1040
1020
2020
2020
2020
2040
4040
4180
FE00
ENDCHAR

STARTCHAR Dcroat
ENCODING 208
SWIDTH 740 0
DWIDTH 11 0
BBX 11 10 1 0
BITMAP
3F80
1040
1020
2020
7C20
2020
2040
4040
4180
FE00
ENDCHAR

STARTCHAR Nacute
ENCODING 209
SWIDTH 720 0
DWIDTH 12 0
BBX 12 13 1 0
BITMAP
0180
0300
0000
3870
1820
1420
1420
2240
2240
2140
4180
4080
E080
ENDCHAR

STARTCHAR Ncaron
ENCODING 210
SWIDTH 720 0
DWIDTH 12 0
BBX 12 13 1 0
BITMAP
06C0
0380
0000
3870
1820
1420
1420
2240
2240
2140
4180
4080
E080
ENDCHAR

STARTCHAR Oacute
ENCODING 211
SWIDTH 760 0
DWIDTH 11 0
BBX 10 13 2 0
BITMAP
0300
0600
0000
0F00
3080
40C0
4040
8040
8040
8080
C080
4300
3C00
ENDCHAR

STARTCHAR Ocircumflex
ENCODING 212
SWIDTH 760 0
DWIDTH 11 0
BBX 10 13 2 0
BITMAP
0700
0D80
0000
0F00
3080
40C0
4040
8040
8040
8080
C080
4300
3C00
ENDCHAR

STARTCHAR Ohungarumlaut
ENCODING 213
SWIDTH 760 0
DWIDTH 11 0
BBX 10 13 2 0
BITMAP
0CC0
1980
0000
0F00
3080
40C0
4040
8040
8040
8080
C080
4300
3C00
ENDCHAR

STARTCHAR Odieresis
ENCODING 214
SWIDTH 760 0
DWIDTH 11 0
BBX 10 13 2 0
BITMAP
0D80
0D80
0000
0F00
3080
40C0
4040
8040
8040
8080
C080
4300
3C00
ENDCHAR

STARTCHAR multiply
ENCODING 215
SWIDTH 600 0
DWIDTH 9 0
BBX 6 6 2 2
BITMAP
84
48
30
30
48
84
ENDCHAR

STARTCHAR Rcaron
ENCODING 216
SWIDTH 700 0
DWIDTH 10 0
BBX 10 13 1 0
BITMAP
0D80
0700
0000
3F80
1040
1040
2080
3F00
2400
2200
4200
4100
E1C0
ENDCHAR

STARTCHAR Uring
ENCODING 217
SWIDTH 720 0
DWIDTH 11 0
BBX 11 13 2 0
BITMAP
0200
0500
0200
70E0
2040
2040
4080
4080
4080
8100
8100
8200
7C00
ENDCHAR

STARTCHAR Uacute
ENCODING 218
SWIDTH 720 0
DWIDTH 11 0
BBX 11 13 2 0
BITMAP
0300
0600
0000
70E0
2040
2040
4080
4080
4080
8100
8100
8200
7C00
ENDCHAR

STARTCHAR Uhungarumlaut
ENCODING 219
SWIDTH 720 0
DWIDTH 11 0
BBX 11 13 2 0
BITMAP
06C0
0D80
0000
70E0
2040
2040
4080
4080
4080
8100
8100
8200
7C00
ENDCHAR

STARTCHAR Udieresis
ENCODING 220
SWIDTH 720 0
DWIDTH 11 0
BBX 11 13 2 0
BITMAP
1980
1980
0000
70E0
2040
2040
4080
4080
4080
8100
8100
8200
7C00
ENDCHAR

STARTCHAR Yacute
ENCODING 221
SWIDTH 660 0
DWIDTH 10 0
BBX 10 13 2 0
BITMAP
0600
0C00
0000
F3C0
4080
2100
2200
1400
1800
1000
2000
2000
7000
ENDCHAR

STARTCHAR Tcommaaccent
ENCODING 222
SWIDTH 600 0
DWIDTH 9 0
BBX 9 14 2 -4
BITMAP
7F00
C980
8880
1000
1000
1000
1000
2000
2000
7000
0000
6000
4000
8000
ENDCHAR

STARTCHAR germandbls
ENCODING 223
SWIDTH 620 0
DWIDTH 9 0
BBX 11 13 -2 -2
BITMAP
01C0
0220
0420
04C0
1D00
0980
08C0
0820
0820
1260
1180
D000
6000
ENDCHAR

STARTCHAR racute
ENCODING 224
SWIDTH 400 0
DWIDTH 6 0
BBX 5 10 2 0
BITMAP
18
30
00
58
E0
40
40
80
80
80
ENDCHAR

STARTCHAR aacute
ENCODING 225
SWIDTH 620 0
DWIDTH 9 0
BBX 8 10 1 0
BITMAP
0C
18
00
1A
66
42
82
84
8D
76
ENDCHAR

STARTCHAR acircumflex
ENCODING 226
SWIDTH 620 0
DWIDTH 9 0
BBX 8 10 1 0
BITMAP
1C
36
00
1A
66
42
82
84
8D
76
ENDCHAR

STARTCHAR abreve
ENCODING 227
SWIDTH 620 0
DWIDTH 9 0
BBX 8 10 1 0
BITMAP
66
3C
00
1A
66
42
82
84
8D
76
ENDCHAR

STARTCHAR adieresis
ENCODING 228
SWIDTH 620 0
DWIDTH 9 0
BBX 8 10 1 0
BITMAP
36
36
00
1A
66
42
82
84
8D
76
ENDCHAR

STARTCHAR lacute
ENCODING 229
SWIDTH 280 0
DWIDTH 4 0
BBX 4 14 1 0
BITMAP
30
60
00
20
60
20
20
40
40
40
80
80
A0
C0
ENDCHAR

STARTCHAR cacute
ENCODING 230
SWIDTH 480 0
DWIDTH 7 0
BBX 6 10 1 0
BITMAP
0C
18
00
38
4C
84
80
80
88
70
ENDCHAR

STARTCHAR ccedilla
ENCODING 231
SWIDTH 480 0
DWIDTH 7 0
BBX 6 10 1 -3
BITMAP
38
4C
84
80
80
88
70
20
10
60
ENDCHAR

STARTCHAR ccaron
ENCODING 232
SWIDTH 480 0
DWIDTH 7 0
BBX 6 10 1 0
BITMAP
6C
38
00
38
4C
84
80
80
88
70
ENDCHAR

STARTCHAR eacute
ENCODING 233
SWIDTH 540 0
DWIDTH 8 0
BBX 7 10 1 0
BITMAP
06
0C
00
1C
62
42
FC
80
82
7C
ENDCHAR

STARTCHAR eogonek
ENCODING 234
SWIDTH 540 0
DWIDTH 8 0
BBX 7 9 1 -2
BITMAP
1C
62
42
FC
80
82
7C
10
1C
ENDCHAR

STARTCHAR edieresis
ENCODING 235
SWIDTH 540 0
DWIDTH 8 0
BBX 7 10 1 0
BITMAP
36
36
00
1C
62
42
FC
80
82
7C
ENDCHAR

STARTCHAR ecaron
ENCODING 236
SWIDTH 540 0
DWIDTH 8 0
BBX 8 10 1 0
BITMAP
1B
0E
00
1C
62
42
FC
80
82
7C
ENDCHAR

STARTCHAR iacute
ENCODING 237
SWIDTH 280 0
DWIDTH 4 0
BBX 3 10 1 0
BITMAP
60
C0
00
40
C0
40
40
80
A0
C0
ENDCHAR

STARTCHAR icircumflex
ENCODING 238
SWIDTH 280 0
DWIDTH 4 0
BBX 5 10 0 0
BITMAP
70
D8
00
20
60
20
20
40
50
60
ENDCHAR

STARTCHAR dcaron
ENCODING 239
SWIDTH 711 0
DWIDTH 11 0
BBX 12 11 1 0
BITMAP
00B0
01A0
00C0
0100
1D00
6300
4100
8200
8200
8680
7B00
ENDCHAR

STARTCHAR dcroat
ENCODING 240
SWIDTH 640 0
DWIDTH 10 0
BBX 10 11 1 0
BITMAP
0080
03C0
0080
0100
1D00
6300
4100
8200
8200
8680
7B00
ENDCHAR

STARTCHAR nacute
ENCODING 241
SWIDTH 620 0
DWIDTH 9 0
BBX 8 10 1 0
BITMAP
0C
18
00
5C
E2
42
42
84
85
86
ENDCHAR

STARTCHAR ncaron
ENCODING 242
SWIDTH 620 0
DWIDTH 9 0
BBX 8 10 1 0
BITMAP
36
1C
00
5C
E2
42
42
84
85
86
ENDCHAR

STARTCHAR oacute
ENCODING 243
SWIDTH 540 0
DWIDTH 8 0
BBX 7 10 1 0
BITMAP
0C
18
00
3C
42
82
82
82
84
78
ENDCHAR

STARTCHAR ocircumflex
ENCODING 244
SWIDTH 540 0
DWIDTH 8 0
BBX 7 10 1 0
BITMAP
1C
36
00
3C
42
82
82
82
84
78
ENDCHAR

STARTCHAR ohungarumlaut
ENCODING 245
SWIDTH 540 0
DWIDTH 8 0
BBX 8 10 1 0
BITMAP
33
66
00
3C
42
82
82
82
84
78
ENDCHAR

STARTCHAR odieresis
ENCODING 246
SWIDTH 540 0
DWIDTH 8 0
BBX 7 10 1 0
BITMAP
36
36
00
3C
42
82
82
82
84
78
ENDCHAR

STARTCHAR divide
ENCODING 247
SWIDTH 600 0
DWIDTH 9 0
BBX 7 5 2 3
BITMAP
10
00
FE
00
10
ENDCHAR

STARTCHAR rcaron
ENCODING 248
SWIDTH 400 0
DWIDTH 6 0
BBX 6 10 2 0
BITMAP
6C
38
00
58
E0
40
40
80
80
80
ENDCHAR

STARTCHAR uring
ENCODING 249
SWIDTH 620 0
DWIDTH 9 0
BBX 8 11 1 0
BITMAP
08
14
08
00
42
C2
42
42
84
8D
76
ENDCHAR

STARTCHAR uacute
ENCODING 250
SWIDTH 620 0
DWIDTH 9 0
BBX 8 10 1 0
BITMAP
0C
18
00
42
C2
42
42
84
8D
76
ENDCHAR

STARTCHAR uhungarumlaut
ENCODING 251
SWIDTH 620 0
DWIDTH 9 0
BBX 8 10 1 0
BITMAP
33
66
00
42
C2
42
42
84
8D
76
ENDCHAR

STARTCHAR udieresis
ENCODING 252
SWIDTH 620 0
DWIDTH 9 0
BBX 8 10 1 0
BITMAP
36
36
00
42
C2
42
42
84
8D
76
ENDCHAR

STARTCHAR yacute
ENCODING 253
SWIDTH 600 0
DWIDTH 9 0
BBX 8 13 1 -3
BITMAP
06
0C
00
21
61
23
42
46
4A
32
84
CC
70
ENDCHAR

STARTCHAR tcommaaccent
ENCODING 254
SWIDTH 340 0
DWIDTH 5 0
BBX 4 14 1 -4
BITMAP
20
20
60
F0
40
40
80
80
90
60
00
60
40
80
ENDCHAR

STARTCHAR dotaccent
ENCODING 255
SWIDTH 260 0
DWIDTH 4 0
BBX 2 2 2 8
BITMAP
C0
C0
ENDCHAR
ENDFONT
